<svg width="1000" height="1000" viewBox="0 0 1000 1000" fill="none" xmlns="http://www.w3.org/2000/svg">
<path fill-rule="evenodd" clip-rule="evenodd" d="M500 1000C776.142 1000 1000 776.142 1000 500C1000 223.858 776.142 0 500 0C223.858 0 0 223.858 0 500C0 776.142 223.858 1000 500 1000ZM593.76 239.037C591.879 273.576 562.355 300.049 527.817 298.168C493.279 296.287 466.805 266.763 468.686 232.225C470.568 197.687 500.091 171.213 534.629 173.094C569.168 174.976 595.641 204.499 593.76 239.037ZM463.32 246.745L284.744 337.243C294.678 347.374 301.241 360.326 303.537 374.328L482.111 283.827C472.179 273.696 465.616 260.745 463.32 246.745ZM562.785 296.776C575.395 290.267 585.688 280.023 592.256 267.444L733.519 409.254C720.91 415.763 710.618 426.007 704.051 438.586L562.785 296.776ZM378.328 488.522L482.808 284.551C492.89 294.536 505.808 301.165 519.799 303.532L409.176 519.489L378.328 488.522ZM298.232 644.887L351.154 541.573L382 572.537L335.219 663.866C325.138 653.882 312.221 647.254 298.232 644.887ZM296.664 417.25C290.097 429.827 279.806 440.07 267.199 446.578L428.957 608.967L467.955 589.203L296.664 417.25ZM510.027 631.438L471.029 651.202L552.992 733.485C559.56 720.906 569.853 710.661 582.463 704.153L510.027 631.438ZM697.18 481.504L605.603 527.914L612.355 571.104L715.971 518.59C706.037 508.458 699.475 495.506 697.18 481.504ZM552.441 554.856L335.916 664.59C345.851 674.723 352.415 687.676 354.711 701.68L559.193 598.047L552.441 554.856ZM266.301 447.032C255.644 452.366 243.786 454.846 231.885 454.227C229.658 454.103 227.438 453.871 225.234 453.532L256.137 651.194C266.793 645.859 278.651 643.38 290.553 643.998C292.778 644.123 294.996 644.355 297.199 644.694L266.301 447.032ZM355.596 716.536C355.824 711.897 355.582 707.248 354.875 702.659L552.504 734.372C548.237 742.834 545.762 752.086 545.234 761.549C545.007 766.188 545.249 770.838 545.957 775.428L348.328 743.715C352.594 735.252 355.068 725.999 355.596 716.536ZM716.666 519.313L625.447 697.395C639.439 699.761 652.359 706.391 662.441 716.377L753.658 538.297C739.666 535.93 726.747 529.3 716.666 519.313ZM527.476 304.422C539.593 305.052 551.66 302.471 562.459 296.94L580.428 412.006L537.265 405.08L521.447 303.789C523.447 304.089 525.458 304.3 527.476 304.422ZM583.859 703.45L546.459 463.967L589.623 470.891L624.98 697.297C622.594 696.907 620.188 696.643 617.773 696.506C606.062 695.896 594.389 698.286 583.859 703.45ZM303.664 375.088C304.398 379.748 304.652 384.472 304.422 389.184C303.901 398.572 301.465 407.755 297.262 416.166L398.631 432.448L418.555 393.539L303.664 375.088ZM477.4 402.989L457.474 441.901L696.988 480.368C696.3 475.829 696.067 471.233 696.293 466.649C696.826 457.13 699.328 447.826 703.642 439.325L477.4 402.989ZM761.677 532.933C796.215 534.815 825.739 508.341 827.62 473.803C829.502 439.265 803.028 409.741 768.49 407.86C733.952 405.979 704.428 432.452 702.547 466.99C700.666 501.528 727.139 531.052 761.677 532.933ZM676.562 768.702C674.681 803.24 645.157 829.714 610.619 827.833C576.081 825.951 549.607 796.428 551.489 761.89C553.37 727.351 582.894 700.878 617.432 702.759C651.97 704.64 678.443 734.164 676.562 768.702ZM283.399 775.325C317.937 777.206 347.461 750.733 349.342 716.195C351.224 681.657 324.75 652.133 290.212 650.252C255.674 648.37 226.15 674.844 224.269 709.382C222.388 743.92 248.861 773.444 283.399 775.325ZM298.168 388.844C296.287 423.382 266.763 449.855 232.225 447.974C197.687 446.093 171.213 416.569 173.094 382.031C174.976 347.493 204.499 321.019 239.037 322.901C273.576 324.782 300.049 354.306 298.168 388.844Z" fill="white"/>
</svg>
