<svg width="1000" height="1000" viewBox="0 0 1000 1000" fill="none" xmlns="http://www.w3.org/2000/svg">
<path fill-rule="evenodd" clip-rule="evenodd" d="M500 1000C776.142 1000 1000 776.142 1000 500C1000 223.858 776.142 0 500 0C223.858 0 0 223.858 0 500C0 776.142 223.858 1000 500 1000ZM260.896 435.84C266.528 439.083 271.221 442.752 274.976 446.848C276.512 448.213 277.707 449.067 278.56 449.408C279.413 449.579 280.352 449.323 281.376 448.64L302.88 432.768C304.245 431.573 304.757 430.464 304.416 429.44C304.075 428.245 303.563 427.221 302.88 426.368C298.613 420.736 293.067 415.957 286.24 412.032C279.413 408.107 271.733 405.035 263.2 402.816C254.837 400.597 245.792 399.488 236.064 399.488C221.387 399.488 208.501 402.048 197.408 407.168C186.485 412.117 177.952 418.944 171.808 427.648C165.835 436.352 162.848 446.165 162.848 457.088C162.848 464.939 164.555 472.448 167.968 479.616C171.552 486.784 176.757 493.013 183.584 498.304C190.411 503.595 198.859 507.691 208.928 510.592L247.584 521.6C253.045 523.307 257.227 525.184 260.128 527.232C263.2 529.109 265.419 531.328 266.784 533.888C268.149 536.277 268.832 538.923 268.832 541.824C268.832 549.163 265.504 554.624 258.848 558.208C252.192 561.621 243.317 563.328 232.224 563.328C224.885 563.328 218.571 562.56 213.28 561.024C207.989 559.488 203.296 557.013 199.2 553.6C195.275 550.187 191.264 545.92 187.168 540.8C186.144 539.605 184.949 538.923 183.584 538.752C182.389 538.581 180.768 539.093 178.72 540.288L159.008 553.856C157.472 555.051 156.619 556.245 156.448 557.44C156.277 558.464 156.619 559.829 157.472 561.536C161.909 568.192 167.968 574.08 175.648 579.2C183.499 584.149 192.459 587.989 202.528 590.72C212.768 593.28 223.691 594.56 235.296 594.56C250.997 594.56 264.565 592.171 276 587.392C287.435 582.613 296.224 575.872 302.368 567.168C308.512 558.293 311.584 547.883 311.584 535.936C311.584 523.477 308 512.555 300.832 503.168C293.664 493.611 282.229 486.699 266.528 482.432L226.08 470.912C220.448 469.205 216.096 467.243 213.024 465.024C209.952 462.805 207.904 460.501 206.88 458.112C205.856 455.723 205.344 453.504 205.344 451.456C205.344 445.483 207.989 440.619 213.28 436.864C218.571 432.939 226.592 430.976 237.344 430.976C247.584 430.976 255.435 432.597 260.896 435.84ZM367.33 592C372.109 592 374.498 589.952 374.498 585.856V553.856C374.498 550.955 373.218 549.504 370.658 549.504H335.586C332.855 549.504 331.49 551.04 331.49 554.112V586.624C331.49 590.208 333.367 592 337.122 592H367.33ZM448.22 406.656C448.22 403.584 446.855 402.048 444.124 402.048H407.516C404.785 402.048 403.42 403.669 403.42 406.912V586.624C403.42 588.501 403.761 589.867 404.444 590.72C405.297 591.573 406.833 592 409.052 592H441.308C443.697 592 445.404 591.573 446.428 590.72C447.623 589.696 448.22 588.075 448.22 585.856V406.656ZM642.634 405.888C642.634 403.328 641.525 402.048 639.306 402.048H610.89C607.818 402.048 606.282 403.584 606.282 406.656V512.384C606.282 513.92 605.855 514.773 605.002 514.944C604.319 515.115 603.466 514.517 602.442 513.152L527.178 405.888C525.983 404.352 524.874 403.328 523.85 402.816C522.997 402.304 521.631 402.048 519.754 402.048H488.778C485.706 402.048 484.17 403.669 484.17 406.912V587.648C484.17 590.549 485.877 592 489.29 592H515.914C519.498 592 521.205 590.464 521.034 587.392V474.752C521.034 473.899 521.29 473.387 521.802 473.216C522.485 473.045 523.167 473.387 523.85 474.24L605.514 588.928C606.709 590.293 607.733 591.147 608.586 591.488C609.439 591.829 610.549 592 611.914 592H637.77C639.306 592 640.501 591.659 641.354 590.976C642.207 590.123 642.634 589.099 642.634 587.904V405.888ZM843.028 590.208C843.369 588.843 843.113 587.392 842.26 585.856L781.844 471.68C780.82 469.291 780.991 467.243 782.356 465.536L831.508 407.936C832.873 406.4 833.044 405.035 832.02 403.84C831.167 402.645 829.631 402.048 827.412 402.048H796.692C794.473 402.048 792.767 402.389 791.572 403.072C790.377 403.755 789.268 404.779 788.244 406.144L726.292 483.968C725.439 484.992 724.671 485.504 723.988 485.504C723.476 485.333 723.22 484.48 723.22 482.944V406.4C723.22 403.499 721.94 402.048 719.38 402.048H682.516C679.785 402.048 678.42 403.669 678.42 406.912V586.88C678.42 588.587 678.761 589.867 679.444 590.72C680.297 591.573 681.833 592 684.052 592H716.308C720.916 592 723.22 590.037 723.22 586.112V541.056C723.22 538.837 723.732 537.045 724.756 535.68L747.54 508.544C749.588 505.984 751.209 505.643 752.404 507.52L793.62 587.904C794.815 590.635 797.289 592 801.044 592H839.444C841.492 592 842.687 591.403 843.028 590.208Z" fill="white"/>
</svg>
