<svg width="1000" height="1000" viewBox="0 0 1000 1000" fill="none" xmlns="http://www.w3.org/2000/svg">
<path fill-rule="evenodd" clip-rule="evenodd" d="M500 1000C776.142 1000 1000 776.142 1000 500C1000 223.858 776.142 0 500 0C223.858 0 0 223.858 0 500C0 776.142 223.858 1000 500 1000ZM532.532 611.526C532.89 633.171 540.971 662.981 582.757 661.909V661.889C596.629 661.534 615.176 657.592 624.893 653.098L650 725.959C640.567 739.515 597.95 755.248 559.586 755.883C445.902 757.79 410.258 676.604 410.258 619.449V461.378H350V386.507C429.16 358.578 448.216 288.654 452.702 248.824C453.009 246.084 455.201 245 456.454 245H532.922V374.35H629.911V461.378H532.532V611.526Z" fill="white"/>
</svg>
